# xmcd CD database file
#
# Track frame offsets:
#	150
#	18892
#	28884
#	40473
#	53094
#	65278
#	77068
#	103745
#	114843
#	128185
#	153057
#	166237
#	182076
#	209931
#	225545
#	240615
#	264000
#	276531
#	292320
#	305358
#	318843
#
# Disc length: 4451 seconds
#
# Revision: 1
# Processed by: cddbd v1.5.2PL0 Copyright (c) Steve Scherf et al.
# Submitted via: CDex 1.51
#
DISCID=24116115
DTITLE=Woody Herman - [CD 09-10] - The Girl Upstairs
DYEAR=1900
DGENRE=Jazz
TTITLE0=Autobahn Blues  [1954]
TTITLE1=By Play  [1954]
TTITLE2=La Cucaracha  [1954]
TTITLE3=Ill Wind  [1954]
TTITLE4=Boo Hoo  [1954]
TTITLE5=Hittin' The Bottle  [1954]
TTITLE6=Wild Apple Honey  [1954]
TTITLE7=Hat Trick  [1954]
TTITLE8=At The Woodchopper's Ball  [1954]
TTITLE9=Opus De-Funk  [1955]
TTITLE10=Gina  [1955]
TTITLE11=I Remember Duke  [1955]
TTITLE12=A Sentimental Journey  [1955]
TTITLE13=Cool Cat On A Hot Tin Roof  [1955]
TTITLE14=Where Or When  [1955]
TTITLE15=Captain Ahab  [1955]
TTITLE16=I'll Never Be The Same  [1955]
TTITLE17=Pimlico  [1955]
TTITLE18=The Girl Upstairs  [1955]
TTITLE19=Skinned  [1955]
TTITLE20=Skinned Again  [1955]
EXTD=
EXTT0=
EXTT1=
EXTT2=
EXTT3=
EXTT4=
EXTT5=
EXTT6=
EXTT7=
EXTT8=
EXTT9=
EXTT10=
EXTT11=
EXTT12=
EXTT13=
EXTT14=
EXTT15=
EXTT16=
EXTT17=
EXTT18=
EXTT19=
EXTT20=
PLAYORDER=
